# This file uses centimeters as units for non-parametric coordinates.

mtllib officeDesk.mtl
g default
v -1.431045 2.234503 -2.004076
v 1.431045 2.234503 -2.004076
v 1.431045 2.041777 -2.004076
v -1.431045 2.041777 -2.004076
v 1.373180 2.041777 -1.956576
v 1.373180 0.000000 -1.956576
v 1.220623 0.000000 -1.956576
v 1.220623 2.041777 -1.956576
v 1.220623 0.000000 -1.804018
v 1.220623 0.666757 -1.804018
v 1.220623 2.041777 -1.804018
v 1.373180 2.041777 -1.804018
v 1.373180 0.000000 -1.804018
v -1.220000 0.678551 0.850791
v -1.270000 0.678551 0.850770
v -1.270000 1.350000 0.850770
v -1.220000 1.350000 0.850791
v 1.266390 2.041777 -1.804018
v 1.266390 0.666757 -1.804018
v 1.266390 0.000000 -1.804018
v 1.266390 0.666757 1.804018
v -1.431045 2.041777 2.004076
v -1.431045 2.234503 2.004076
v -1.220623 0.666757 1.804018
v -1.266390 0.666757 1.804018
v -1.220623 0.000000 1.804018
v -1.266390 0.000000 1.804018
v -1.373181 0.000000 1.956576
v -1.373181 0.000000 1.804018
v -1.220623 0.000000 1.956576
v 1.220000 0.678551 -0.850791
v -1.270000 1.698433 0.850770
v -1.220623 1.700000 1.804018
v -1.220000 1.698433 0.850791
v -0.969824 2.041777 -0.850791
v -0.944483 1.740928 -0.850791
v -0.944483 1.740928 0.850791
v -0.969824 2.041777 0.850791
v -1.266390 1.350000 1.804018
v -1.266390 1.697070 1.804018
v -1.270000 1.390000 0.850770
v -1.220000 1.390000 0.850791
v 1.220000 0.678551 0.850791
v -1.220623 1.350000 1.804018
v -1.220623 1.390000 1.804018
v -1.266390 1.390000 1.804018
v -1.220000 2.041777 0.850791
v -1.220000 1.740928 0.850791
v -1.270000 1.740928 0.850770
v -1.270000 2.041777 0.850770
v -1.373181 2.041777 1.804018
v -1.373181 2.041777 1.956576
v -1.220623 2.041777 1.956576
v -1.220623 1.740000 1.804018
v -1.266390 1.740000 1.804018
v 1.220000 1.740928 -0.850791
v 1.220000 1.740928 0.850791
v 1.220623 0.666757 1.804018
v -1.266390 2.041777 1.804018
v 1.431045 2.234503 2.004076
v 1.266390 2.041777 1.804018
v 1.266390 0.000000 1.804018
v 1.220623 0.000000 1.804018
v 1.431045 2.041777 2.004076
v 1.373180 2.041777 1.956576
v 1.373180 0.000000 1.956576
v 1.373180 0.000000 1.804018
v 1.373180 2.041777 1.804018
v 1.220623 2.041777 1.956576
v 1.220623 0.000000 1.956576
v 1.220623 2.041777 1.804018
v -1.220623 2.041777 1.804018
v -1.220623 2.041777 -1.804018
v -1.220623 2.041777 -1.956576
v -1.373181 2.041777 -1.956576
v -1.373181 2.041777 -1.804018
v -1.266390 2.041777 -1.804018
v -1.270000 2.041777 -0.850770
v -1.220000 2.041777 -0.850791
v -1.220000 1.740928 -0.850791
v -1.220000 1.698433 -0.850791
v -1.220000 1.390000 -0.850791
v -1.220000 1.350000 -0.850791
v -1.220000 0.678551 -0.850791
v -1.270000 1.740928 -0.850770
v -1.220623 1.700000 -1.804018
v -1.270000 1.698433 -0.850770
v -1.270000 1.390000 -0.850770
v -1.266390 1.697070 -1.804018
v -1.220623 0.666757 -1.804018
v -1.266390 1.740000 -1.804018
v -1.220623 1.740000 -1.804018
v -1.266390 1.390000 -1.804018
v -1.270000 1.350000 -0.850770
v -1.270000 0.678551 -0.850770
v -1.220623 1.390000 -1.804018
v -1.220623 1.350000 -1.804018
v -1.266390 1.350000 -1.804018
v -1.266390 0.666757 -1.804018
v -1.373181 0.000000 -1.956576
v -1.373181 0.000000 -1.804018
v -1.220623 0.000000 -1.956576
v -1.266390 0.000000 -1.804018
v -1.220623 0.000000 -1.804018
vt 0.375000 0.500000
vt 0.625000 0.500000
vt 0.625000 0.750000
vt 0.375000 0.750000
vt 0.375000 0.503124
vt 0.375000 0.750000
vt 0.624465 0.749997
vt 0.624993 0.503123
vt 0.874983 0.246864
vt 0.873604 -0.000975
vt 0.624248 -0.012241
vt 0.625180 0.049266
vt 0.628025 0.243197
vt 0.375000 0.246877
vt 0.375000 0.000000
vt 0.125000 0.000000
vt 0.125000 0.246877
vt 0.225000 0.000000
vt 0.225000 0.000000
vt 0.225000 0.126336
vt 0.628699 0.666101
vt 0.550930 0.245443
vt 0.550036 0.049823
vt 0.549963 -0.014589
vt 0.620340 0.750702
vt 0.620340 0.750702
vt 0.503556 0.750703
vt 0.125000 0.000000
vt 0.375000 0.000000
vt 0.375000 0.250000
vt 0.125000 0.250000
vt 0.123925 -0.001782
vt 0.123925 -0.001782
vt 0.624673 0.049944
vt 0.625000 0.000000
vt 0.550000 0.000000
vt 0.549878 0.050004
vt 0.375000 0.750000
vt 0.375000 1.000000
vt 0.550000 1.000000
vt 0.625000 1.000000
vt 0.625000 0.750000
vt 0.375000 0.850000
vt 0.225000 0.192000
vt 1.000000 0.000000
vt 0.619744 0.672760
vt 0.224999 0.245726
vt 0.225000 0.200004
vt 0.225000 0.200004
vt 0.224999 0.245726
vt 0.123933 0.113654
vt 0.123935 0.169013
vt 0.225000 0.134400
vt 0.162300 0.679655
vt 0.375000 0.850000
vt 1.000000 0.000000
vt 0.000000 0.000000
vt 0.123936 0.115313
vt 0.225000 0.245419
vt 0.225000 0.196298
vt 0.224998 0.197140
vt 0.225000 0.245491
vt 0.375000 0.246877
vt 0.375000 0.000000
vt 0.125000 0.000000
vt 0.125000 0.246877
vt 0.375000 0.503124
vt 0.625000 0.503124
vt 0.000000 0.000000
vt 0.000049 2.138693
vt 0.999921 2.398798
vt 1.000000 0.000000
vt 0.007581 1.154055
vt 0.225000 0.200000
vt 0.225000 0.200000
vt 0.503556 0.750703
vt 0.029412 0.909461
vt 0.936742 0.949151
vt 0.123940 0.184811
vt 0.123933 0.244544
vt 0.123922 -0.001782
vt 0.225000 0.000000
vt 0.625000 0.250000
vt 0.029412 1.504406
vt 1.042251 1.499171
vt 0.225000 0.000000
vt 0.876071 0.245021
vt 0.876071 -0.001789
vt 0.876071 -0.001789
vt 0.876071 0.245021
vt 0.549963 -0.014589
vt 0.624248 -0.012241
vt 0.625180 0.049266
vt 0.550036 0.049823
vt 0.625000 0.000000
vt 0.875000 0.000000
vt 0.875000 0.250000
vt 0.125000 0.246877
vt 0.125000 0.000000
vt 0.375000 0.000000
vt 0.375000 0.246877
vt 0.624993 0.503123
vt 0.624465 0.749997
vt 0.375000 0.750000
vt 0.375000 0.503124
vt 0.004872 -2.997933
vt 0.000000 0.000000
vt 1.000000 0.000000
vt 0.000000 0.000000
vt 0.997940 0.035558
vt 0.628025 0.243197
vt 0.873604 -0.000975
vt 0.874983 0.246864
vt 0.550930 0.245443
vt 0.549901 0.245671
vt 0.549687 0.193529
vt 0.549679 0.188459
vt 0.549635 0.151959
vt 0.549596 0.148260
vt 0.875000 0.246877
vt 0.875000 0.000000
vt 0.624927 0.144109
vt 0.624948 0.151933
vt 0.625063 0.194860
vt 0.625082 0.201898
vt 0.625200 0.245932
vt 0.123934 0.244913
vt 0.123932 0.189487
vt 0.123932 0.180628
vt 0.123930 0.126594
vt 0.123929 0.116746
vt 0.123933 0.245021
vt 0.624067 0.997037
vt 0.624067 0.987522
vt 0.614418 0.987522
vt 0.614418 0.762478
vt 0.624067 0.762478
vt 0.624067 0.752963
vt 0.610283 0.752963
vt 0.610283 0.762478
vt 0.389717 0.762478
vt 0.389717 0.752963
vt 0.375933 0.752963
vt 0.625000 1.000000
vt 0.375933 0.762478
vt 0.385582 0.762478
vt 0.385256 0.821935
vt 0.389773 0.821934
vt 0.412376 0.821934
vt 0.412376 0.928066
vt 0.389773 0.928066
vt 0.385256 0.928065
vt 0.385582 0.987522
vt 0.375933 0.987522
vt 0.375933 0.997037
vt 0.389717 0.997037
vt 0.389717 0.987522
vt 0.610283 0.987522
vt 0.610283 0.997037
vt 0.375000 1.000000
vt 0.225000 0.245419
vt 0.225000 0.196298
vt 0.619744 0.672760
vt 0.162300 0.679655
vt 0.628699 0.666101
vt 0.225000 0.000000
vt 0.225000 0.245491
vt 0.224998 0.197140
vt 1.000000 0.000000
vt 0.225000 0.192000
vt 0.225000 0.134400
vt 0.123935 0.169013
vt 0.123922 -0.001782
vt 0.123925 -0.001782
vt 0.123933 0.244544
vt 0.123940 0.184811
vt 0.000000 0.000000
vt 0.007581 1.154055
vt 1.000000 0.000000
vt 0.999921 2.398798
vt 0.000049 2.138693
vt 0.002140 -1.315359
vt 0.002026 0.046701
vt 0.002139 1.896197
vt 0.000000 0.000000
vt 1.000000 0.000000
vt 0.123936 0.115313
vt 0.225000 0.126336
vt 0.225000 0.000000
vt 0.000000 0.000000
vt 1.000000 0.000000
vt 0.123933 0.113654
vt 1.042251 1.499171
vt 0.029412 1.504406
vt 0.123925 -0.001782
vt 0.936742 0.949151
vt 0.029412 0.909461
vt 0.125000 0.246877
vt 0.125000 0.000000
vt 0.375000 0.000000
vt 0.375000 0.246877
vt 0.625000 0.503124
vt 0.625000 0.750000
vt 0.375000 0.750000
vt 0.375000 0.503124
vt 0.624673 0.049944
vt 0.549878 0.050004
vt 0.550000 0.000000
vt 0.625000 0.000000
vt 0.123933 0.245021
vt 0.123929 0.116746
vt 0.123930 0.126594
vt 0.123932 0.180628
vt 0.123932 0.189487
vt 0.123934 0.244913
vt 0.625000 1.000000
vt 0.550000 1.000000
vt 0.375000 1.000000
vt 0.625200 0.245932
vt 0.625082 0.201898
vt 0.625063 0.194860
vt 0.624948 0.151933
vt 0.624927 0.144109
vt 0.875000 0.000000
vt 0.875000 0.246877
vt 0.549596 0.148260
vt 0.549635 0.151959
vt 0.549679 0.188459
vt 0.549687 0.193529
vt 0.549901 0.245671
vn 0.000000 0.000000 -1.000000
vn 0.000000 0.000000 -1.000000
vn 0.000000 0.000000 -1.000000
vn 0.000000 0.000000 -1.000000
vn 0.000000 0.000000 -1.000000
vn 0.000000 0.000000 -1.000000
vn 0.000000 0.000000 -1.000000
vn 0.000000 0.000000 -1.000000
vn -1.000000 0.000000 0.000000
vn -1.000000 0.000000 0.000000
vn -1.000000 0.000000 0.000000
vn -1.000000 0.000000 0.000000
vn -1.000000 0.000000 0.000000
vn 1.000000 0.000000 0.000000
vn 1.000000 0.000000 0.000000
vn 1.000000 0.000000 0.000000
vn 1.000000 0.000000 0.000000
vn 0.000005 0.000000 -1.000000
vn 0.000417 0.000000 -1.000000
vn 0.000417 0.000000 -1.000000
vn 0.000003 0.000000 -1.000000
vn -0.000002 0.000000 1.000000
vn -0.000002 0.000000 1.000000
vn -0.000002 0.000000 1.000000
vn -0.000002 0.000000 1.000000
vn -0.000002 0.000000 1.000000
vn -0.184505 -0.982832 0.000000
vn -0.184505 -0.982832 0.000000
vn -0.184505 -0.982832 0.000000
vn -0.184505 -0.982832 0.000000
vn -0.184505 -0.982832 0.000000
vn -0.184505 -0.982832 0.000000
vn -1.000000 0.000000 0.000000
vn -1.000000 0.000000 0.000000
vn -1.000000 0.000000 0.000000
vn -1.000000 0.000000 0.000000
vn 0.000000 -0.999923 -0.012371
vn 0.000003 -0.999923 -0.012371
vn 0.000003 -0.999923 -0.012371
vn 0.000000 -0.999924 -0.012371
vn 0.000000 0.000000 -1.000000
vn 0.000000 0.000000 -1.000000
vn 0.000002 0.000000 -1.000000
vn 0.000002 0.000000 -1.000000
vn -0.000000 -1.000000 -0.000000
vn -0.000000 -1.000000 -0.000000
vn -0.000000 -1.000000 -0.000000
vn -0.000000 -1.000000 -0.000000
vn -0.000000 -1.000000 -0.000000
vn -0.030577 0.999532 -0.000060
vn -0.030577 0.999532 -0.000060
vn -0.030577 0.999532 -0.000060
vn -0.030577 0.999532 -0.000060
vn -0.996471 -0.083932 0.000000
vn -0.996471 -0.083932 0.000000
vn -0.996471 -0.083932 0.000000
vn -0.996471 -0.083932 0.000000
vn -0.999993 0.000000 0.003787
vn -0.999993 0.000000 0.003787
vn -0.999993 0.000000 0.003787
vn -0.999993 0.000000 0.003787
vn 0.000417 0.000000 -1.000000
vn 0.000417 0.000000 -1.000000
vn 0.000001 0.000000 -1.000000
vn 0.000001 0.000000 -1.000000
vn 0.000002 1.000000 -0.000000
vn 0.000002 1.000000 -0.000000
vn 0.000002 1.000000 -0.000000
vn 0.000002 1.000000 -0.000000
vn -0.000001 -1.000000 -0.000000
vn -0.000001 -1.000000 -0.000000
vn -0.000001 -1.000000 -0.000000
vn -0.000001 -1.000000 -0.000000
vn -1.000000 0.000000 -0.000654
vn -1.000000 0.000000 -0.000654
vn -1.000000 0.000000 -0.000654
vn -1.000000 0.000000 -0.000654
vn 0.000067 0.000000 -1.000000
vn 0.000067 0.000000 -1.000000
vn 0.000418 0.000000 -1.000000
vn 0.000418 0.000000 -1.000000
vn -1.000000 0.000000 0.000000
vn -1.000000 0.000000 0.000000
vn -1.000000 0.000000 0.000000
vn -1.000000 0.000000 0.000000
vn -0.999993 0.000000 0.003787
vn -0.999993 0.000000 0.003787
vn -0.999993 0.000000 0.003787
vn -0.999993 0.000000 0.003787
vn 0.000000 0.000000 -1.000000
vn 0.000000 0.000000 -1.000000
vn 0.000000 0.000000 1.000000
vn 0.000000 0.000000 1.000000
vn 0.000000 0.000000 1.000000
vn 0.000000 0.000000 1.000000
vn 0.000000 -1.000000 -0.000973
vn 0.000000 -1.000000 -0.000973
vn 0.000000 -1.000000 -0.000973
vn 0.000000 -1.000000 -0.000973
vn -1.000000 0.000000 -0.000654
vn -1.000000 0.000000 -0.000654
vn -1.000000 0.000000 -0.000654
vn -1.000000 0.000000 -0.000654
vn 0.000000 -1.000000 0.000000
vn 0.000000 -1.000000 0.000000
vn 0.000000 -1.000000 0.000000
vn 0.000000 -1.000000 0.000000
vn 0.000000 0.000000 1.000000
vn 0.000000 0.000000 1.000000
vn 0.000000 0.000000 1.000000
vn 0.000000 0.000000 1.000000
vn -0.999993 0.000000 0.003787
vn -0.999993 0.000000 0.003787
vn -0.999993 0.000000 0.003787
vn -0.999993 0.000000 0.003787
vn 0.000000 -0.999924 -0.012371
vn 0.000000 -0.999924 -0.012371
vn 0.000000 1.000000 0.000000
vn 0.000000 1.000000 0.000000
vn 0.000000 1.000000 0.000000
vn 0.000000 1.000000 0.000000
vn 0.000000 0.000000 1.000000
vn 0.000000 0.000000 1.000000
vn 0.000000 0.000000 1.000000
vn 0.000000 0.000000 1.000000
vn -1.000000 0.000000 0.000000
vn -1.000000 0.000000 0.000000
vn -1.000000 0.000000 0.000000
vn -1.000000 0.000000 0.000000
vn 1.000000 0.000000 0.000000
vn 1.000000 0.000000 0.000000
vn 1.000000 0.000000 0.000000
vn 1.000000 0.000000 0.000000
vn -0.000001 0.000000 -1.000000
vn 0.000000 0.000000 -1.000000
vn 0.000000 0.000000 -1.000000
vn -0.000001 0.000000 -1.000000
vn 1.000000 0.000000 0.000000
vn 1.000000 0.000000 0.000000
vn 1.000000 0.000000 0.000000
vn 1.000000 0.000000 0.000000
vn 0.000000 0.000000 1.000000
vn 0.000000 0.000000 1.000000
vn 0.000000 0.000000 1.000000
vn 0.000000 0.000000 1.000000
vn 1.000000 0.000000 0.000000
vn 1.000000 0.000000 0.000000
vn 1.000000 0.000000 0.000000
vn 1.000000 0.000000 0.000000
vn 0.000000 0.000000 1.000000
vn 0.000000 0.000000 1.000000
vn 0.000000 0.000000 1.000000
vn 0.000000 0.000000 1.000000
vn 0.000000 -1.000000 0.000000
vn 0.000000 -1.000000 0.000000
vn 0.000000 -1.000000 0.000000
vn 0.000000 -1.000000 0.000000
vn 0.000000 -1.000000 0.000000
vn -1.000000 0.000000 0.000000
vn -1.000000 0.000000 0.000000
vn -1.000000 0.000000 0.000000
vn -1.000000 0.000000 0.000000
vn -1.000000 0.000000 0.000000
vn -0.000001 0.000000 -1.000000
vn -0.000001 0.000000 -1.000000
vn -0.000001 0.000000 -1.000000
vn 0.000000 0.000000 -1.000000
vn 0.000000 0.000000 -1.000000
vn 0.000000 0.000000 -1.000000
vn 0.000000 0.000000 -1.000000
vn 0.000002 0.000000 -1.000000
vn 0.000002 0.000000 -1.000000
vn 0.000002 0.000000 -1.000000
vn 0.000002 0.000000 -1.000000
vn 0.000002 0.000000 -1.000000
vn 0.000002 0.000000 -1.000000
vn 0.000002 0.000000 -1.000000
vn 1.000000 0.000000 0.000000
vn 1.000000 0.000000 0.000000
vn 1.000000 0.000000 0.000000
vn 1.000000 0.000000 0.000000
vn 1.000000 0.000000 0.000000
vn 1.000000 0.000000 0.000000
vn 1.000000 0.000000 0.000000
vn 1.000000 0.000000 0.000000
vn 1.000000 0.000000 0.000000
vn 0.000000 0.000000 1.000000
vn 0.000000 0.000000 1.000000
vn 0.000000 0.000000 1.000000
vn 0.000000 0.000000 1.000000
vn 0.000000 0.000000 1.000000
vn 0.000000 0.000000 1.000000
vn 0.000000 0.000000 1.000000
vn 0.000000 0.000000 1.000000
vn 0.000000 -1.000000 0.000000
vn 0.000000 -1.000000 0.000000
vn 0.000000 -1.000000 0.000000
vn 0.000000 -1.000000 0.000000
vn 0.000000 -1.000000 0.000000
vn 0.000000 -1.000000 0.000000
vn 0.000000 -1.000000 0.000000
vn 0.000000 -1.000000 0.000000
vn 0.000000 -1.000000 0.000000
vn 0.000000 -1.000000 0.000000
vn 0.000000 -1.000000 0.000000
vn 0.000000 -1.000000 0.000000
vn 0.000000 -1.000000 0.000000
vn 0.000000 -1.000000 0.000000
vn 0.000000 -1.000000 0.000000
vn 0.000000 -1.000000 0.000000
vn 0.000000 -1.000000 0.000000
vn 0.000000 -1.000000 0.000000
vn 0.000000 -1.000000 0.000000
vn 0.000000 -1.000000 0.000000
vn 0.000000 -1.000000 0.000000
vn 0.000000 -1.000000 0.000000
vn 0.000000 -1.000000 0.000000
vn 0.000000 -1.000000 0.000000
vn 0.000000 -1.000000 0.000000
vn 0.000000 -1.000000 0.000000
vn 0.000000 -1.000000 0.000000
vn 0.000000 -1.000000 0.000000
vn 0.000000 -1.000000 0.000000
vn 0.000000 -1.000000 0.000000
vn 0.000067 0.000000 1.000000
vn 0.000067 0.000000 1.000000
vn 0.000000 0.000000 1.000000
vn 0.000000 0.000000 1.000000
vn 0.000000 0.000000 1.000000
vn 0.000000 0.000000 1.000000
vn 0.000000 0.000000 1.000000
vn 0.000000 0.000000 1.000000
vn 0.000001 0.000000 1.000000
vn 0.000001 0.000000 1.000000
vn 0.000003 0.000000 1.000000
vn 0.000005 0.000000 1.000000
vn 0.000418 0.000000 1.000000
vn 0.000418 0.000000 1.000000
vn 0.000000 0.000000 1.000000
vn 0.000000 0.000000 1.000000
vn -0.030577 0.999532 0.000060
vn -0.030577 0.999532 0.000060
vn -0.030577 0.999532 0.000060
vn -0.030577 0.999532 0.000060
vn 0.000417 0.000000 1.000000
vn 0.000417 0.000000 1.000000
vn 0.000000 -0.999924 0.012371
vn 0.000000 -0.999924 0.012371
vn 0.000000 -0.999924 0.012371
vn 0.000000 -0.999923 0.012371
vn -0.999993 0.000000 -0.003787
vn -0.999993 0.000000 -0.003787
vn -0.999993 0.000000 -0.003787
vn -0.999993 0.000000 -0.003787
vn -1.000000 0.000000 0.000654
vn -1.000000 0.000000 0.000654
vn -1.000000 0.000000 0.000654
vn -1.000000 0.000000 0.000654
vn 0.000000 -1.000000 0.000973
vn 0.000000 -1.000000 0.000973
vn 0.000000 -1.000000 0.000973
vn 0.000000 -1.000000 0.000973
vn 0.000000 -1.000000 0.000000
vn 0.000000 -1.000000 0.000000
vn 0.000000 -1.000000 0.000000
vn 0.000000 -1.000000 0.000000
vn 0.000000 -1.000000 0.000000
vn -0.999993 0.000000 -0.003787
vn -0.999993 0.000000 -0.003787
vn -0.999993 0.000000 -0.003787
vn -0.999993 0.000000 -0.003787
vn 0.000417 0.000000 1.000000
vn 0.000417 0.000000 1.000000
vn -1.000000 0.000000 0.000654
vn -1.000000 0.000000 0.000654
vn -1.000000 0.000000 0.000654
vn -1.000000 0.000000 0.000654
vn -0.000001 -1.000000 0.000000
vn -0.000001 -1.000000 0.000000
vn -0.000001 -1.000000 0.000000
vn -0.000001 -1.000000 0.000000
vn 0.000002 1.000000 -0.000000
vn 0.000002 1.000000 -0.000000
vn 0.000002 1.000000 -0.000000
vn 0.000002 1.000000 -0.000000
vn 0.000000 0.000000 -1.000000
vn 0.000000 0.000000 -1.000000
vn 0.000000 0.000000 -1.000000
vn 0.000000 0.000000 -1.000000
vn -0.999993 0.000000 -0.003787
vn -0.999993 0.000000 -0.003787
vn -0.999993 0.000000 -0.003787
vn -0.999993 0.000000 -0.003787
vn 0.000000 0.000000 -1.000000
vn 0.000000 0.000000 -1.000000
vn 0.000000 0.000000 -1.000000
vn 0.000000 0.000000 -1.000000
vn 0.000003 -0.999924 0.012371
vn 0.000003 -0.999924 0.012371
vn -1.000000 0.000000 0.000000
vn -1.000000 0.000000 0.000000
vn -1.000000 0.000000 0.000000
vn -1.000000 0.000000 0.000000
vn 0.000000 0.000000 -1.000000
vn 0.000000 0.000000 -1.000000
vn 0.000000 0.000000 -1.000000
vn 0.000000 0.000000 -1.000000
vn 0.000000 0.000000 1.000000
vn 0.000001 0.000000 1.000000
vn 0.000001 0.000000 1.000000
vn 0.000000 0.000000 1.000000
vn 0.000000 0.000000 -1.000000
vn 0.000000 0.000000 -1.000000
vn 0.000000 0.000000 -1.000000
vn 0.000000 0.000000 -1.000000
vn 0.000000 0.000000 -1.000000
vn 0.000000 0.000000 -1.000000
vn 0.000000 0.000000 -1.000000
vn 0.000000 0.000000 -1.000000
vn 0.000000 -1.000000 0.000000
vn 0.000000 -1.000000 0.000000
vn 0.000000 -1.000000 0.000000
vn 0.000000 -1.000000 0.000000
vn 0.000000 -1.000000 0.000000
vn 1.000000 0.000000 0.000000
vn 1.000000 0.000000 0.000000
vn 1.000000 0.000000 0.000000
vn 1.000000 0.000000 0.000000
vn 1.000000 0.000000 0.000000
vn 1.000000 0.000000 0.000000
vn 1.000000 0.000000 0.000000
vn 1.000000 0.000000 0.000000
vn 1.000000 0.000000 0.000000
vn 0.000001 0.000000 1.000000
vn 0.000001 0.000000 1.000000
vn 0.000001 0.000000 1.000000
vn 0.000001 0.000000 1.000000
vn 0.000001 0.000000 1.000000
vn 0.000001 0.000000 1.000000
vn 0.000001 0.000000 1.000000
s off
g officeDesk
usemtl initialShadingGroup
f 1/1/1 2/2/2 3/3/3 4/4/4
f 5/5/5 6/6/6 7/7/7 8/8/8
f 8/9/9 7/10/10 9/11/11 10/12/12 11/13/13
f 12/14/14 13/15/15 6/16/16 5/17/17
s 1
f 14/18/18 15/19/19 16/20/20 17/21/21
s 2
f 18/22/22 19/23/23 20/24/24 13/15/25 12/14/26
s off
f 43/55/27 31/43/28 10/27/29 19/25/30 21/26/31 58/76/32
f 4/28/33 22/29/34 23/30/35 1/31/36
s 3
f 24/32/37 25/33/38 15/19/39 14/18/40
s 4
f 24/34/41 26/35/42 27/36/43 25/37/44
s off
f 28/38/45 29/39/46 27/40/47 26/41/48 30/42/49
f 33/45/50 34/46/51 32/44/52 40/52/53
f 35/47/54 36/48/55 37/49/56 38/50/57
f 25/33/58 39/51/59 16/20/60 15/19/61
s 1
f 41/53/62 32/44/63 34/46/64 42/54/65
s off
f 39/51/66 44/56/67 17/21/68 16/20/69
f 41/53/70 42/54/71 45/57/72 46/58/73
f 45/57/74 42/54/75 17/21/76 44/56/77
s 5
f 47/59/78 48/60/79 49/61/80 50/62/81
s off
f 51/63/82 29/64/83 28/65/84 52/66/85
f 46/58/86 40/52/87 32/44/88 41/53/89
s 5
f 38/50/90 37/49/91 48/60/79 47/59/78
s off
f 52/67/92 28/38/93 30/42/94 53/68/95
f 54/69/96 55/70/97 49/71/98 48/72/99
f 54/69/100 48/73/101 34/46/102 33/45/103
f 36/48/104 56/74/105 57/75/106 37/49/107
f 45/57/108 46/77/109 39/78/110 44/56/111
f 50/62/112 49/61/113 55/79/114 59/80/115
s 3
f 58/81/116 24/32/37 14/18/40 43/82/117
s off
f 23/30/118 60/83/119 2/2/120 1/1/121
f 54/69/122 55/84/123 40/85/124 33/45/125
f 56/74/126 31/86/127 43/82/128 57/75/129
f 61/87/130 21/88/131 19/89/132 18/90/133
s 6
f 62/91/134 63/92/135 58/93/136 21/94/137
s off
f 64/95/138 3/96/139 2/97/140 60/83/141
f 22/29/142 64/95/143 60/83/144 23/30/145
f 65/98/146 66/99/147 67/100/148 68/101/149
f 69/102/150 70/103/151 66/104/152 65/105/153
f 62/106/154 67/107/155 66/108/156 70/109/157 63/110/158
f 71/111/159 58/93/160 63/92/161 70/112/162 69/113/163
s 6
f 68/101/164 67/100/165 62/91/134 21/94/137 61/114/166
s 1
f 43/82/167 14/18/18 17/21/21 42/54/65 34/46/64 48/60/168 37/49/169 57/75/170
s 4
f 59/115/171 55/116/172 40/117/173 46/118/174 39/119/175 25/37/44 27/36/43 29/64/176 51/63/177
s off
f 53/120/178 30/121/179 26/35/180 24/34/181 44/122/182 45/123/183 33/124/184 54/125/185 72/126/186
f 72/127/187 54/128/188 33/129/189 45/130/190 44/131/191 24/32/192 58/81/193 71/132/194
s 7
f 65/133/195 68/134/196 61/135/197 18/136/198 12/137/199 5/138/200 8/139/201 11/140/202 73/141/203 74/142/204 75/143/205 4/4/206 3/3/207 64/144/208
f 4/4/206 75/143/205 76/145/209 77/146/210 78/147/211 79/148/212 35/149/213 38/150/214 47/151/215 50/152/216 59/153/217 51/154/218 52/155/219 53/156/220 72/157/221 71/158/222 69/159/223 65/133/195 64/144/208 22/160/224
s 8
f 79/161/225 80/162/226 36/48/227 35/47/228
s 9
f 31/86/229 56/74/230 36/48/231 80/162/232 81/163/233 82/164/234 83/165/235 84/166/236
s 8
f 78/167/237 85/168/238 80/162/226 79/161/225
s 2
f 20/24/24 19/23/23 10/12/239 9/11/240
s off
f 87/170/241 81/163/242 86/169/243 89/172/244
s 9
f 88/171/245 82/164/234 81/163/233 87/170/246
s 10
f 10/173/247 31/86/248 84/166/249 90/174/250
s off
f 77/175/251 91/176/252 85/168/253 78/167/254
f 92/177/255 86/169/256 81/163/257 80/178/258
f 92/177/259 80/179/260 85/180/261 91/181/262
f 20/182/263 9/183/264 7/184/265 6/185/266 13/186/267
f 93/187/268 88/171/269 87/170/270 89/172/271
s 9
f 84/166/236 83/165/235 94/188/272 95/189/273
s off
f 96/190/274 97/191/275 83/165/276 82/164/277
f 88/171/278 93/187/279 96/190/280 82/164/281
f 98/192/282 94/188/283 83/165/284 97/191/285
f 92/177/286 86/169/287 89/193/288 91/194/289
f 99/195/290 95/189/291 94/188/292 98/192/293
f 96/190/294 97/191/295 98/196/296 93/197/297
s 10
f 90/174/250 84/166/249 95/189/298 99/195/299
s off
f 75/198/300 100/199/301 101/200/302 76/201/303
f 74/202/304 102/203/305 100/204/306 75/205/307
s 11
f 90/206/308 99/207/309 103/208/310 104/209/311
s off
f 11/210/312 10/173/313 90/174/314 97/211/315 96/212/316 86/213/317 92/214/318 73/215/319
f 100/204/320 102/203/321 104/216/322 103/217/323 101/218/324
f 73/219/325 92/220/326 86/221/327 96/222/328 97/223/329 90/206/330 104/209/331 102/224/332 74/225/333
s 11
f 76/201/334 101/200/335 103/208/310 99/207/309 98/226/336 93/227/337 89/228/338 91/229/339 77/230/340
