# This file uses centimeters as units for non-parametric coordinates.

mtllib playerChar.mtl
g default
v -0.338065 0.000000 0.338065
v 0.338065 0.000000 0.338065
v -0.338065 1.930053 0.338065
v 0.338065 1.930053 0.338065
v -0.338065 1.930053 -0.338065
v 0.338065 1.930053 -0.338065
v -0.338065 0.000000 -0.338065
v 0.338065 0.000000 -0.338065
vt 0.375000 0.000000
vt 0.625000 0.000000
vt 0.625000 0.250000
vt 0.375000 0.250000
vt 0.625000 0.500000
vt 0.375000 0.500000
vt 0.625000 0.750000
vt 0.375000 0.750000
vt 0.625000 1.000000
vt 0.375000 1.000000
vt 0.875000 0.000000
vt 0.875000 0.250000
vt 0.125000 0.000000
vt 0.125000 0.250000
vn 0.000000 0.000000 1.000000
vn 0.000000 0.000000 1.000000
vn 0.000000 0.000000 1.000000
vn 0.000000 0.000000 1.000000
vn 0.000000 1.000000 0.000000
vn 0.000000 1.000000 0.000000
vn 0.000000 1.000000 0.000000
vn 0.000000 1.000000 0.000000
vn 0.000000 0.000000 -1.000000
vn 0.000000 0.000000 -1.000000
vn 0.000000 0.000000 -1.000000
vn 0.000000 0.000000 -1.000000
vn 0.000000 -1.000000 0.000000
vn 0.000000 -1.000000 0.000000
vn 0.000000 -1.000000 0.000000
vn 0.000000 -1.000000 0.000000
vn 1.000000 0.000000 0.000000
vn 1.000000 0.000000 0.000000
vn 1.000000 0.000000 0.000000
vn 1.000000 0.000000 0.000000
vn -1.000000 0.000000 0.000000
vn -1.000000 0.000000 0.000000
vn -1.000000 0.000000 0.000000
vn -1.000000 0.000000 0.000000
s off
g body playerChar
usemtl initialShadingGroup
f 1/1/1 2/2/2 4/3/3 3/4/4
f 3/4/5 4/3/6 6/5/7 5/6/8
f 5/6/9 6/5/10 8/7/11 7/8/12
f 7/8/13 8/7/14 2/9/15 1/10/16
f 2/2/17 8/11/18 6/12/19 4/3/20
f 7/13/21 1/1/22 3/4/23 5/14/24
g default
v -0.500000 2.070494 0.500000
v 0.500000 2.070494 0.500000
v -0.500000 3.070494 0.500000
v 0.500000 3.070494 0.500000
v -0.500000 3.070494 -0.500000
v 0.500000 3.070494 -0.500000
v -0.500000 2.070494 -0.500000
v 0.500000 2.070494 -0.500000
vt 0.375000 0.000000
vt 0.625000 0.000000
vt 0.625000 0.250000
vt 0.375000 0.250000
vt 0.625000 0.500000
vt 0.375000 0.500000
vt 0.625000 0.750000
vt 0.375000 0.750000
vt 0.625000 1.000000
vt 0.375000 1.000000
vt 0.875000 0.000000
vt 0.875000 0.250000
vt 0.125000 0.000000
vt 0.125000 0.250000
vn 0.000000 0.000000 1.000000
vn 0.000000 0.000000 1.000000
vn 0.000000 0.000000 1.000000
vn 0.000000 0.000000 1.000000
vn 0.000000 1.000000 0.000000
vn 0.000000 1.000000 0.000000
vn 0.000000 1.000000 0.000000
vn 0.000000 1.000000 0.000000
vn 0.000000 0.000000 -1.000000
vn 0.000000 0.000000 -1.000000
vn 0.000000 0.000000 -1.000000
vn 0.000000 0.000000 -1.000000
vn 0.000000 -1.000000 0.000000
vn 0.000000 -1.000000 0.000000
vn 0.000000 -1.000000 0.000000
vn 0.000000 -1.000000 0.000000
vn 1.000000 0.000000 0.000000
vn 1.000000 0.000000 0.000000
vn 1.000000 0.000000 0.000000
vn 1.000000 0.000000 0.000000
vn -1.000000 0.000000 0.000000
vn -1.000000 0.000000 0.000000
vn -1.000000 0.000000 0.000000
vn -1.000000 0.000000 0.000000
s off
g playerChar head head
usemtl initialShadingGroup
f 9/15/25 10/16/26 12/17/27 11/18/28
f 11/18/29 12/17/30 14/19/31 13/20/32
f 13/20/33 14/19/34 16/21/35 15/22/36
f 15/22/37 16/21/38 10/23/39 9/24/40
f 10/16/41 16/25/42 14/26/43 12/17/44
f 15/27/45 9/15/46 11/18/47 13/28/48
g default
v -0.592301 2.940506 0.622703
v -0.142361 2.707422 0.622703
v -0.546238 3.029423 0.622703
v -0.096299 2.796340 0.622703
v -0.546238 3.029423 0.522563
v -0.096299 2.796340 0.522563
v -0.592301 2.940506 0.522563
v -0.142361 2.707422 0.522563
vt 0.375000 0.000000
vt 0.625000 0.000000
vt 0.625000 0.250000
vt 0.375000 0.250000
vt 0.625000 0.500000
vt 0.375000 0.500000
vt 0.625000 0.750000
vt 0.375000 0.750000
vt 0.625000 1.000000
vt 0.375000 1.000000
vt 0.875000 0.000000
vt 0.875000 0.250000
vt 0.125000 0.000000
vt 0.125000 0.250000
vn 0.000000 0.000000 1.000000
vn 0.000000 0.000000 1.000000
vn 0.000000 0.000000 1.000000
vn 0.000000 0.000000 1.000000
vn 0.459978 0.887930 0.000000
vn 0.459978 0.887930 0.000000
vn 0.459978 0.887930 0.000000
vn 0.459978 0.887930 0.000000
vn 0.000000 0.000000 -1.000000
vn 0.000000 0.000000 -1.000000
vn 0.000000 0.000000 -1.000000
vn 0.000000 0.000000 -1.000000
vn -0.459978 -0.887930 0.000000
vn -0.459978 -0.887930 0.000000
vn -0.459978 -0.887930 0.000000
vn -0.459978 -0.887930 0.000000
vn 0.887930 -0.459978 0.000000
vn 0.887930 -0.459978 0.000000
vn 0.887930 -0.459978 0.000000
vn 0.887930 -0.459978 0.000000
vn -0.887931 0.459977 0.000000
vn -0.887931 0.459977 0.000000
vn -0.887931 0.459977 0.000000
vn -0.887931 0.459977 0.000000
s off
g playerChar head browR
usemtl initialShadingGroup
f 17/29/49 18/30/50 20/31/51 19/32/52
f 19/32/53 20/31/54 22/33/55 21/34/56
f 21/34/57 22/33/58 24/35/59 23/36/60
f 23/36/61 24/35/62 18/37/63 17/38/64
f 18/30/65 24/39/66 22/40/67 20/31/68
f 23/41/69 17/29/70 19/32/71 21/42/72
g default
v 0.592301 2.940506 0.622703
v 0.142361 2.707422 0.622703
v 0.546239 3.029423 0.622703
v 0.096299 2.796340 0.622703
v 0.546239 3.029423 0.522563
v 0.096299 2.796340 0.522563
v 0.592301 2.940506 0.522563
v 0.142361 2.707422 0.522563
vt 0.375000 0.000000
vt 0.375000 0.250000
vt 0.625000 0.250000
vt 0.625000 0.000000
vt 0.375000 0.500000
vt 0.625000 0.500000
vt 0.375000 0.750000
vt 0.625000 0.750000
vt 0.375000 1.000000
vt 0.625000 1.000000
vt 0.875000 0.250000
vt 0.875000 0.000000
vt 0.125000 0.000000
vt 0.125000 0.250000
vn 0.000000 0.000000 1.000000
vn 0.000000 0.000000 1.000000
vn 0.000000 0.000000 1.000000
vn 0.000000 0.000000 1.000000
vn -0.459978 0.887930 0.000000
vn -0.459978 0.887930 0.000000
vn -0.459978 0.887930 0.000000
vn -0.459978 0.887930 0.000000
vn 0.000000 0.000000 -1.000000
vn 0.000000 0.000000 -1.000000
vn 0.000000 0.000000 -1.000000
vn 0.000000 0.000000 -1.000000
vn 0.459978 -0.887930 0.000000
vn 0.459978 -0.887930 0.000000
vn 0.459978 -0.887930 0.000000
vn 0.459978 -0.887930 0.000000
vn -0.887931 -0.459978 0.000000
vn -0.887931 -0.459978 0.000000
vn -0.887931 -0.459978 0.000000
vn -0.887931 -0.459978 0.000000
vn 0.887931 0.459977 0.000000
vn 0.887931 0.459977 0.000000
vn 0.887931 0.459977 0.000000
vn 0.887931 0.459977 0.000000
s off
g playerChar head browL
usemtl initialShadingGroup
f 25/43/73 27/44/74 28/45/75 26/46/76
f 27/44/77 29/47/78 30/48/79 28/45/80
f 29/47/81 31/49/82 32/50/83 30/48/84
f 31/49/85 25/51/86 26/52/87 32/50/88
f 26/46/89 28/45/90 30/53/91 32/54/92
f 31/55/93 29/56/94 27/44/95 25/43/96
