# This file uses centimeters as units for non-parametric coordinates.

mtllib protoTree.mtl
g default
v 0.232450 0.000000 -0.232450
v 0.000000 0.000000 -0.328734
v -0.232450 0.000000 -0.232450
v -0.328734 0.000000 0.000000
v -0.232450 0.000000 0.232450
v 0.000000 0.000000 0.328734
v 0.232450 0.000000 0.232450
v 0.328734 0.000000 0.000000
v 0.232450 4.252107 -0.232450
v 0.000000 4.252107 -0.328734
v -0.232450 4.252107 -0.232450
v -0.328734 4.252107 0.000000
v -0.232450 4.252107 0.232450
v 0.000000 4.252107 0.328734
v 0.232450 4.252107 0.232450
v 0.328734 4.252107 0.000000
v 0.000000 0.000000 0.000000
v 0.000000 4.252107 0.000000
vt 0.610485 0.045765
vt 0.500000 0.000000
vt 0.389515 0.045765
vt 0.343750 0.156250
vt 0.389515 0.266735
vt 0.500000 0.312500
vt 0.610485 0.266735
vt 0.656250 0.156250
vt 0.375000 0.312500
vt 0.406250 0.312500
vt 0.437500 0.312500
vt 0.468750 0.312500
vt 0.500000 0.312500
vt 0.531250 0.312500
vt 0.562500 0.312500
vt 0.593750 0.312500
vt 0.625000 0.312500
vt 0.375000 0.688440
vt 0.406250 0.688440
vt 0.437500 0.688440
vt 0.468750 0.688440
vt 0.500000 0.688440
vt 0.531250 0.688440
vt 0.562500 0.688440
vt 0.593750 0.688440
vt 0.625000 0.688440
vt 0.610485 0.733265
vt 0.500000 0.687500
vt 0.389515 0.733265
vt 0.343750 0.843750
vt 0.389515 0.954235
vt 0.500000 1.000000
vt 0.610485 0.954235
vt 0.656250 0.843750
vt 0.500000 0.150000
vt 0.500000 0.837500
vn 0.382683 0.000000 -0.923880
vn 0.382683 0.000000 -0.923880
vn 0.382683 0.000000 -0.923880
vn 0.382683 0.000000 -0.923880
vn -0.382683 0.000000 -0.923880
vn -0.382683 0.000000 -0.923880
vn -0.382683 0.000000 -0.923880
vn -0.382683 0.000000 -0.923880
vn -0.923880 0.000000 -0.382683
vn -0.923880 0.000000 -0.382683
vn -0.923880 0.000000 -0.382683
vn -0.923880 0.000000 -0.382683
vn -0.923880 0.000000 0.382683
vn -0.923880 0.000000 0.382683
vn -0.923880 0.000000 0.382683
vn -0.923880 0.000000 0.382683
vn -0.382683 0.000000 0.923880
vn -0.382683 0.000000 0.923880
vn -0.382683 0.000000 0.923880
vn -0.382683 0.000000 0.923880
vn 0.382683 0.000000 0.923880
vn 0.382683 0.000000 0.923880
vn 0.382683 0.000000 0.923880
vn 0.382683 0.000000 0.923880
vn 0.923879 0.000000 0.382683
vn 0.923879 0.000000 0.382683
vn 0.923879 0.000000 0.382683
vn 0.923879 0.000000 0.382683
vn 0.923879 0.000000 -0.382684
vn 0.923879 0.000000 -0.382684
vn 0.923879 0.000000 -0.382684
vn 0.923879 0.000000 -0.382684
vn 0.000000 -1.000000 0.000000
vn 0.000000 -1.000000 0.000000
vn 0.000000 -1.000000 0.000000
vn 0.000000 -1.000000 0.000000
vn 0.000000 -1.000000 0.000000
vn 0.000000 -1.000000 0.000000
vn 0.000000 -1.000000 0.000000
vn 0.000000 -1.000000 0.000000
vn 0.000000 -1.000000 0.000000
vn 0.000000 1.000000 0.000000
vn 0.000000 1.000000 0.000000
vn 0.000000 1.000000 0.000000
vn 0.000000 1.000000 0.000000
vn 0.000000 1.000000 0.000000
vn 0.000000 1.000000 0.000000
vn 0.000000 1.000000 0.000000
vn 0.000000 1.000000 0.000000
vn 0.000000 1.000000 0.000000
s off
g trunk tree
usemtl initialShadingGroup
f 1/9/1 2/10/2 10/19/3 9/18/4
f 2/10/5 3/11/6 11/20/7 10/19/8
f 3/11/9 4/12/10 12/21/11 11/20/12
f 4/12/13 5/13/14 13/22/15 12/21/16
f 5/13/17 6/14/18 14/23/19 13/22/20
f 6/14/21 7/15/22 15/24/23 14/23/24
f 7/15/25 8/16/26 16/25/27 15/24/28
f 8/16/29 1/17/30 9/26/31 16/25/32
s 1
f 2/2/33 1/1/34 17/35/35
f 3/3/36 2/2/33 17/35/35
f 4/4/37 3/3/36 17/35/35
f 5/5/38 4/4/37 17/35/35
f 6/6/39 5/5/38 17/35/35
f 7/7/40 6/6/39 17/35/35
f 8/8/41 7/7/40 17/35/35
f 1/1/34 8/8/41 17/35/35
s 2
f 9/33/42 10/32/43 18/36/44
f 10/32/43 11/31/45 18/36/44
f 11/31/45 12/30/46 18/36/44
f 12/30/46 13/29/47 18/36/44
f 13/29/47 14/28/48 18/36/44
f 14/28/48 15/27/49 18/36/44
f 15/27/49 16/34/50 18/36/44
f 16/34/50 9/33/42 18/36/44
g default
v 0.458016 3.721578 -0.793307
v -0.458016 3.721578 -0.793307
v -0.916032 3.721578 -0.000000
v -0.522228 3.834436 0.793307
v 0.369837 3.626265 0.793307
v 0.916032 3.721578 0.000000
v 0.793307 4.392160 -1.652929
v -0.870838 4.420368 -1.710959
v -1.555700 4.315644 -0.075439
v -0.696355 4.563668 1.670402
v 0.848746 4.411306 1.800344
v 1.586614 4.118517 0.144972
v 0.821839 5.487562 -1.939199
v -0.513094 5.273448 -2.055912
v -1.833302 4.978932 0.355279
v -0.662958 5.635931 2.027293
v 0.889358 5.574061 1.835084
v 1.750005 4.996883 -0.188887
v 0.660257 6.300350 -1.241661
v -0.753509 6.056218 -1.490805
v -1.575069 5.882812 -0.032473
v -0.679007 6.322579 1.218473
v 0.793307 6.224223 1.512407
v 1.373184 6.224223 -0.019411
v 0.305871 6.894805 -0.723360
v -0.593556 6.894805 -0.769431
v -0.752922 6.894805 0.132632
v -0.458016 6.894805 0.793307
v 0.458016 6.894805 0.793307
v 0.758289 6.894805 0.000000
v 0.000000 3.476128 0.000000
v 0.107970 7.140255 -0.180384
vt 0.000000 0.166667
vt 0.166667 0.166667
vt 0.333333 0.166667
vt 0.500000 0.166667
vt 0.666667 0.166667
vt 0.833333 0.166667
vt 1.000000 0.166667
vt 0.000000 0.333333
vt 0.166667 0.333333
vt 0.333333 0.333333
vt 0.500000 0.333333
vt 0.666667 0.333333
vt 0.833333 0.333333
vt 1.000000 0.333333
vt 0.000000 0.500000
vt 0.166667 0.500000
vt 0.333333 0.500000
vt 0.500000 0.500000
vt 0.666667 0.500000
vt 0.833333 0.500000
vt 1.000000 0.500000
vt 0.000000 0.666667
vt 0.166667 0.666667
vt 0.333333 0.666667
vt 0.500000 0.666667
vt 0.666667 0.666667
vt 0.833333 0.666667
vt 1.000000 0.666667
vt 0.000000 0.833333
vt 0.166667 0.833333
vt 0.333333 0.833333
vt 0.500000 0.833333
vt 0.666667 0.833333
vt 0.833333 0.833333
vt 1.000000 0.833333
vt 0.083333 0.000000
vt 0.250000 0.000000
vt 0.416667 0.000000
vt 0.583333 0.000000
vt 0.750000 0.000000
vt 0.916667 0.000000
vt 0.083333 1.000000
vt 0.250000 1.000000
vt 0.416667 1.000000
vt 0.583333 1.000000
vt 0.750000 1.000000
vt 0.916667 1.000000
vn 0.005071 -0.792025 -0.610468
vn 0.005071 -0.792025 -0.610468
vn 0.005071 -0.792025 -0.610468
vn 0.005071 -0.792025 -0.610468
vn -0.602842 -0.732931 -0.315267
vn -0.602842 -0.732931 -0.315268
vn -0.602842 -0.732931 -0.315267
vn -0.602842 -0.732931 -0.315267
vn -0.644933 -0.644974 0.409963
vn -0.644933 -0.644974 0.409963
vn -0.644933 -0.644974 0.409963
vn -0.644933 -0.644974 0.409963
vn -0.146143 -0.759415 0.633981
vn -0.146143 -0.759415 0.633981
vn -0.146143 -0.759415 0.633981
vn -0.146143 -0.759415 0.633981
vn 0.498713 -0.803011 0.326280
vn 0.498713 -0.803011 0.326280
vn 0.498713 -0.803011 0.326280
vn 0.498713 -0.803011 0.326280
vn 0.554930 -0.755710 -0.347788
vn 0.554929 -0.755710 -0.347788
vn 0.554929 -0.755710 -0.347788
vn 0.554929 -0.755710 -0.347788
vn 0.074896 -0.320729 -0.944205
vn 0.074896 -0.320729 -0.944205
vn 0.074896 -0.320729 -0.944205
vn 0.074896 -0.320729 -0.944205
vn -0.896520 0.072104 -0.437095
vn -0.896520 0.072104 -0.437095
vn -0.896520 0.072104 -0.437096
vn -0.896520 0.072104 -0.437095
vn -0.759871 -0.354271 0.545057
vn -0.759871 -0.354271 0.545057
vn -0.759871 -0.354271 0.545057
vn -0.759871 -0.354271 0.545057
vn 0.007845 -0.172842 0.984918
vn 0.007845 -0.172842 0.984918
vn 0.007845 -0.172842 0.984918
vn 0.007845 -0.172842 0.984918
vn 0.913917 -0.032046 0.404634
vn 0.913917 -0.032046 0.404634
vn 0.913917 -0.032046 0.404634
vn 0.913917 -0.032046 0.404634
vn 0.855482 -0.229092 -0.464400
vn 0.855482 -0.229092 -0.464400
vn 0.855482 -0.229092 -0.464400
vn 0.855482 -0.229092 -0.464400
vn 0.000883 0.620687 -0.784058
vn 0.000883 0.620687 -0.784058
vn 0.000883 0.620687 -0.784058
vn 0.000883 0.620687 -0.784058
vn -0.876402 0.059510 -0.477890
vn -0.876402 0.059510 -0.477889
vn -0.876402 0.059510 -0.477890
vn -0.876402 0.059510 -0.477890
vn -0.805443 0.429716 0.408174
vn -0.805443 0.429716 0.408174
vn -0.805443 0.429716 0.408174
vn -0.805443 0.429716 0.408174
vn 0.008587 0.646454 0.762905
vn 0.008587 0.646454 0.762905
vn 0.008587 0.646454 0.762905
vn 0.008587 0.646454 0.762905
vn 0.909732 0.255813 0.327028
vn 0.909732 0.255813 0.327028
vn 0.909732 0.255813 0.327028
vn 0.909732 0.255813 0.327028
vn 0.836798 0.385897 -0.388397
vn 0.836798 0.385897 -0.388397
vn 0.836798 0.385897 -0.388397
vn 0.836798 0.385897 -0.388397
vn 0.027009 0.656093 -0.754196
vn 0.027009 0.656093 -0.754196
vn 0.027009 0.656093 -0.754196
vn 0.027009 0.656093 -0.754196
vn -0.783425 0.552286 -0.285000
vn -0.783425 0.552286 -0.285000
vn -0.783425 0.552286 -0.285000
vn -0.783425 0.552286 -0.285000
vn -0.757268 0.555112 0.344086
vn -0.757268 0.555112 0.344086
vn -0.757268 0.555112 0.344086
vn -0.757268 0.555112 0.344086
vn -0.063004 0.672852 0.737090
vn -0.063004 0.672852 0.737090
vn -0.063004 0.672852 0.737090
vn -0.063004 0.672852 0.737090
vn 0.713547 0.646448 0.270105
vn 0.713547 0.646448 0.270105
vn 0.713547 0.646448 0.270105
vn 0.713547 0.646448 0.270105
vn 0.656327 0.659018 -0.367329
vn 0.656327 0.659018 -0.367329
vn 0.656327 0.659018 -0.367329
vn 0.656327 0.659018 -0.367329
vn 0.000000 -0.955319 -0.295577
vn 0.000000 -0.955319 -0.295577
vn 0.000000 -0.955319 -0.295577
vn -0.255977 -0.955319 -0.147789
vn -0.255977 -0.955319 -0.147789
vn -0.255977 -0.955319 -0.147789
vn -0.250128 -0.933490 0.256966
vn -0.250128 -0.933491 0.256966
vn -0.250128 -0.933491 0.256966
vn -0.218245 -0.935238 0.278744
vn -0.218245 -0.935238 0.278744
vn -0.218245 -0.935238 0.278744
vn 0.258321 -0.964066 0.062026
vn 0.258321 -0.964066 0.062026
vn 0.258321 -0.964066 0.062026
vn 0.255977 -0.955319 -0.147788
vn 0.255977 -0.955319 -0.147788
vn 0.255977 -0.955319 -0.147788
vn 0.020772 0.913846 -0.405530
vn 0.020772 0.913846 -0.405530
vn 0.020772 0.913846 -0.405530
vn -0.291069 0.955319 -0.051423
vn -0.291069 0.955319 -0.051423
vn -0.291069 0.955319 -0.051423
vn -0.236901 0.965762 0.105745
vn -0.236901 0.965762 0.105745
vn -0.236901 0.965762 0.105745
vn -0.000000 0.969666 0.244435
vn -0.000000 0.969666 0.244435
vn -0.000000 0.969666 0.244435
vn 0.320841 0.939315 0.121441
vn 0.320841 0.939315 0.121441
vn 0.320841 0.939315 0.121441
vn 0.402044 0.880416 -0.251454
vn 0.402044 0.880416 -0.251454
vn 0.402044 0.880416 -0.251454
s off
g tree green
usemtl initialShadingGroup
f 19/37/51 20/38/52 26/45/53 25/44/54
f 20/38/55 21/39/56 27/46/57 26/45/58
f 21/39/59 22/40/60 28/47/61 27/46/62
f 22/40/63 23/41/64 29/48/65 28/47/66
f 23/41/67 24/42/68 30/49/69 29/48/70
f 24/42/71 19/43/72 25/50/73 30/49/74
f 25/44/75 26/45/76 32/52/77 31/51/78
f 26/45/79 27/46/80 33/53/81 32/52/82
f 27/46/83 28/47/84 34/54/85 33/53/86
f 28/47/87 29/48/88 35/55/89 34/54/90
f 29/48/91 30/49/92 36/56/93 35/55/94
f 30/49/95 25/50/96 31/57/97 36/56/98
f 31/51/99 32/52/100 38/59/101 37/58/102
f 32/52/103 33/53/104 39/60/105 38/59/106
f 33/53/107 34/54/108 40/61/109 39/60/110
f 34/54/111 35/55/112 41/62/113 40/61/114
f 35/55/115 36/56/116 42/63/117 41/62/118
f 36/56/119 31/57/120 37/64/121 42/63/122
f 37/58/123 38/59/124 44/66/125 43/65/126
f 38/59/127 39/60/128 45/67/129 44/66/130
f 39/60/131 40/61/132 46/68/133 45/67/134
f 40/61/135 41/62/136 47/69/137 46/68/138
f 41/62/139 42/63/140 48/70/141 47/69/142
f 42/63/143 37/64/144 43/71/145 48/70/146
f 20/38/147 19/37/148 49/72/149
f 21/39/150 20/38/151 49/73/152
f 22/40/153 21/39/154 49/74/155
f 23/41/156 22/40/157 49/75/158
f 24/42/159 23/41/160 49/76/161
f 19/43/162 24/42/163 49/77/164
f 43/65/165 44/66/166 50/78/167
f 44/66/168 45/67/169 50/79/170
f 45/67/171 46/68/172 50/80/173
f 46/68/174 47/69/175 50/81/176
f 47/69/177 48/70/178 50/82/179
f 48/70/180 43/71/181 50/83/182
